# xmcd
#
# Track frame offsets: 
#        150
#        34021
#        54431
#        83395
#        112124
#        133147
#        155137
#        161851
#        191127
#        211974
#        232174
#        262890
#        303286
#
# Disc length: 4071 seconds
#
# Revision: 7
# Processed by: cddbd v1.5.2PL0 Copyright (c) Steve Scherf et al.
# Submitted via: ExactAudioCopy v1.3
#
DISCID=b40fe50d
DTITLE=The Walkabouts - Trail Of Stars (Limited Edition)
DYEAR=1999
DGENRE=Rock
TTITLE0=Desert Skies
TTITLE1=Straight To The Stars
TTITLE2=Gold
TTITLE3=Last Tears
TTITLE4=Crime Story
TTITLE5=Hightimes
TTITLE6=Harvey's Quote To Me
TTITLE7=On The Day
TTITLE8=Till I Reach You
TTITLE9=Drown
TTITLE10=No One The Wiser
TTITLE11=Bonnie and Clyde
TTITLE12=Data
EXTD=
EXTT0=
EXTT1=
EXTT2=
EXTT3=
EXTT4=
EXTT5=
EXTT6=
EXTT7=
EXTT8=
EXTT9=
EXTT10=
EXTT11=
EXTT12=
PLAYORDER=
